<svg width="76" height="60" viewBox="0 0 76 60" fill="none" xmlns="http://www.w3.org/2000/svg">
<g clip-path="url(#clip0_1235_7023)">
<path d="M24.4482 55.1883H22.865L24.1492 47.2089C24.2289 46.7162 24.1108 46.2235 23.8164 45.8192C23.5221 45.4159 23.0872 45.1505 22.5942 45.0732L21.2079 44.8524L22.1049 39.277C22.2558 38.3446 21.6793 37.4663 20.7945 37.1952L21.3963 33.4584C21.46 33.0653 21.3653 32.6704 21.1301 32.3472C20.9445 32.092 20.6867 31.9094 20.3933 31.8116L21.4684 25.1315C21.6475 24.7934 21.58 24.3668 21.2772 24.1051C20.817 23.7065 20.6801 23.4252 20.6689 23.3572C20.6689 23.3563 20.6689 23.3553 20.6689 23.3544L21.341 19.1798C21.5125 19.0829 21.6662 18.973 21.789 18.8407C22.1068 18.4989 22.0889 17.9633 21.7449 17.6476C21.5669 17.4837 21.3391 17.4138 21.1151 17.4278L21.0898 0.841114C21.0898 0.829937 21.0869 0.820623 21.0869 0.809446C21.086 0.778709 21.0823 0.748904 21.0776 0.718167C21.0738 0.693019 21.0701 0.666939 21.0635 0.642723C21.057 0.615712 21.0476 0.589632 21.0382 0.563552C21.0288 0.537473 21.0204 0.512324 21.0082 0.488107C20.997 0.463891 20.9829 0.440605 20.9698 0.41732C20.9557 0.394034 20.9426 0.37168 20.9267 0.350258C20.9098 0.327904 20.892 0.306481 20.8732 0.28599C20.8564 0.26643 20.8395 0.247802 20.8207 0.230105C20.8001 0.210545 20.7776 0.19378 20.7551 0.176083C20.7336 0.160249 20.713 0.144415 20.6905 0.130443C20.668 0.116472 20.6436 0.104364 20.6192 0.0922554C20.593 0.0792156 20.5667 0.0671071 20.5386 0.0568616C20.5283 0.0531359 20.5189 0.046616 20.5077 0.0428903C20.4927 0.0382332 20.4777 0.0373018 20.4627 0.0335761C20.4327 0.0251934 20.4027 0.0186735 20.3718 0.0140164C20.3465 0.0102907 20.3221 0.0084279 20.2968 0.00656506C20.278 0.00563365 20.2602 0.000976562 20.2415 0.000976562H20.2405C20.2265 0.000976562 20.2143 0.00470223 20.2002 0.00470223C20.1787 0.00563365 20.1571 0.0084279 20.1365 0.0112221C20.0999 0.0158792 20.0643 0.0214677 20.0306 0.0307819C20.0156 0.0345076 20.0006 0.0400961 19.9856 0.0447531C19.9481 0.0568616 19.9115 0.0699014 19.8769 0.0866669C19.8628 0.0931868 19.8497 0.10157 19.8366 0.109021C19.8038 0.127649 19.7709 0.146278 19.741 0.168632C19.725 0.179809 19.711 0.192848 19.6969 0.204957C19.6707 0.226379 19.6463 0.248733 19.6229 0.273882C19.6069 0.290647 19.5938 0.308344 19.5797 0.326041C19.56 0.350258 19.5413 0.375406 19.5244 0.402417C19.5122 0.421977 19.5019 0.443399 19.4907 0.464822C19.4757 0.493696 19.4626 0.52257 19.4513 0.553307C19.4476 0.562621 19.4419 0.571004 19.4391 0.580318L14.2079 16.3334C13.9999 16.2514 13.7599 16.2495 13.5406 16.3501C13.115 16.5448 12.9294 17.045 13.1253 17.4678C13.1984 17.6252 13.3128 17.7752 13.4459 17.9214L12.7795 22.0662C12.772 22.0783 12.7626 22.0886 12.756 22.1016C12.7242 22.1622 12.5067 22.3866 11.9434 22.6242C11.56 22.7853 11.3604 23.1942 11.4485 23.5844L10.3799 30.2236C10.0697 30.2264 9.76878 30.3195 9.51289 30.503C9.18764 30.7368 8.97393 31.0823 8.91113 31.4763L8.3103 35.2132C7.90257 35.2057 7.50514 35.3203 7.16958 35.5615C6.76091 35.8559 6.4919 36.2899 6.41222 36.7854L5.51521 42.3609L4.12797 42.1401C3.63306 42.0619 3.13722 42.1792 2.73136 42.4717C2.3255 42.7642 2.05836 43.1954 1.97963 43.6872L0.0103105 55.8981H0.0131225C0.00656126 55.9419 0 55.9856 0 56.0313C0 56.4961 0.379616 56.8733 0.84734 56.8733H24.4482C24.9168 56.8733 25.2955 56.4961 25.2955 56.0313C25.2955 55.5665 24.9159 55.1893 24.4482 55.1893V55.1883ZM19.4026 6.05984L19.4213 17.9484C18.917 17.9829 18.2722 17.968 17.5054 17.846C16.8231 17.7379 16.1819 17.5619 15.6542 17.3495L19.4026 6.05984ZM13.1075 23.9291C13.475 23.7279 13.8424 23.4606 14.0973 23.1215C14.2567 22.9949 14.3729 22.8151 14.4076 22.599L15.0019 18.9041C15.6542 19.1695 16.4144 19.3791 17.2364 19.5104C17.7894 19.598 18.3884 19.6529 18.9714 19.6529C19.1673 19.6529 19.3604 19.6446 19.5507 19.6315L18.9564 23.3237C18.9255 23.5127 18.9639 23.6962 19.0492 23.8536C19.1795 24.2839 19.4673 24.6789 19.7728 25.0021L18.7249 31.5117L12.0577 30.4518L13.1075 23.93V23.9291ZM10.5524 31.9299L19.6922 33.382L19.1251 36.9028L17.617 36.6634C17.6329 36.6261 17.6526 36.5907 17.6592 36.5498C17.7454 36.0142 17.8794 35.1852 17.9647 34.6497C17.9872 34.5118 17.9525 34.3712 17.871 34.2585C17.7885 34.1458 17.6638 34.0694 17.5261 34.0471C17.288 34.0089 17.0058 33.9642 16.7668 33.9269C16.6281 33.9045 16.4866 33.939 16.3732 34.02C16.2597 34.1011 16.1829 34.2249 16.1604 34.3628C16.0741 34.8984 15.941 35.7273 15.8548 36.262C15.8483 36.3029 15.8567 36.343 15.8595 36.384L13.2322 35.9667C13.2397 35.9425 13.2547 35.9211 13.2584 35.8959C13.3447 35.3603 13.4778 34.5314 13.564 33.9958C13.5865 33.858 13.5518 33.7173 13.4703 33.6046C13.3878 33.4919 13.2631 33.4155 13.1253 33.3932C12.8863 33.3559 12.6051 33.3112 12.3661 33.273C12.2274 33.2507 12.0858 33.2852 11.9724 33.3662C11.8581 33.4482 11.7821 33.572 11.7597 33.7089C11.6734 34.2445 11.5394 35.0735 11.4541 35.609C11.4503 35.6342 11.4569 35.6584 11.4569 35.6835L9.9853 35.4498L10.5524 31.929V31.9299ZM8.08347 37.049C8.09378 36.9847 8.13127 36.9456 8.16033 36.9242C8.19033 36.9018 8.23813 36.8767 8.30374 36.8897L20.2696 38.7917C20.3746 38.8085 20.4468 38.9062 20.4299 39.0106L19.5319 44.587L18.2394 44.3811L18.7999 40.8939C18.8355 40.6731 18.7811 40.4477 18.649 40.2671C18.5168 40.0864 18.3181 39.9643 18.096 39.9289L15.673 39.5443C15.2099 39.4707 14.776 39.7836 14.7019 40.2428L14.1404 43.7291L12.5751 43.4804L13.1469 39.9308C13.1825 39.7101 13.1281 39.4847 12.9969 39.303C12.8648 39.1223 12.666 39.0013 12.4439 38.9649L10.02 38.5803C9.556 38.5076 9.12296 38.8196 9.04891 39.2788L8.47808 42.8294L7.18552 42.6235L8.08253 37.0481L8.08347 37.049ZM16.9927 41.4611L16.5681 44.1026L15.8183 43.9834L16.2429 41.3419L16.9918 41.4611H16.9927ZM11.3407 40.4971L10.9048 43.2019L10.1559 43.0827L10.5908 40.3779L11.3407 40.4971ZM15.0543 50.616L14.3185 55.1883H8.67398L9.55038 49.7414C9.66661 49.0214 10.0734 48.3629 10.6686 47.9354C11.2704 47.5014 12.0071 47.3281 12.7438 47.4436C13.4787 47.56 14.1236 47.954 14.5604 48.5539C14.9906 49.1444 15.1715 49.896 15.0553 50.616H15.0543ZM21.1488 55.1883H16.0348L16.7284 50.8815C16.9168 49.707 16.6347 48.5287 15.9326 47.5656C15.2296 46.6016 14.1911 45.9673 13.0091 45.7801C11.8281 45.5938 10.6414 45.8732 9.67223 46.5709C8.7021 47.2685 8.06379 48.3005 7.87445 49.476L6.95493 55.1893H1.84184L3.65087 43.9508C3.66025 43.8903 3.69493 43.8539 3.72305 43.8344C3.75117 43.8148 3.79803 43.7934 3.85802 43.8027L22.3289 46.7385C22.3748 46.746 22.4161 46.7711 22.4451 46.8103C22.4732 46.8484 22.4845 46.895 22.477 46.9434L21.1497 55.1902L21.1488 55.1883Z" fill="#39919A"/>
<path d="M17.8311 24.0996L15.2281 23.686C14.7651 23.6134 14.3311 23.9254 14.2571 24.3846L13.4706 29.2736C13.435 29.4944 13.4894 29.7198 13.6206 29.9014C13.7518 30.083 13.9515 30.2032 14.1736 30.2395L16.7766 30.653C16.8216 30.6605 16.8675 30.6633 16.9115 30.6633C17.3212 30.6633 17.6811 30.368 17.7476 29.9545L18.5341 25.0655C18.5697 24.8447 18.5153 24.6193 18.3841 24.4377C18.2519 24.257 18.0532 24.1359 17.8311 24.0996ZM16.2076 28.8563L15.2797 28.7092L15.7989 25.4837L16.7269 25.6308L16.2076 28.8563Z" fill="#39919A"/>
<path d="M28.206 35.7599L26.2705 37.7141C26.2039 37.7811 26.1664 37.8715 26.1664 37.9655V40.7123C26.1664 40.9107 26.0043 41.0718 25.8046 41.0718H24.7183C24.5186 41.0718 24.3564 40.9107 24.3564 40.7123V28.8498C24.3564 28.6514 24.5186 28.4902 24.7183 28.4902H25.8046C26.0043 28.4902 26.1664 28.6514 26.1664 28.8498V34.6339C26.1664 34.9561 26.561 35.1154 26.7869 34.8844L32.9329 28.6001C33.0014 28.5303 33.0942 28.4912 33.1916 28.4912H34.2593C34.577 28.4912 34.7401 28.8684 34.5217 29.0975L29.9129 33.9223C29.7873 34.0536 29.7798 34.2585 29.896 34.3982L34.9548 40.485C35.1497 40.7188 34.9819 41.0727 34.6764 41.0727H33.4935C33.3885 41.0727 33.2882 41.0271 33.2198 40.9479L28.7366 35.7786C28.5988 35.6193 28.3532 35.6118 28.2051 35.7609L28.206 35.7599Z" fill="white"/>
<path d="M43.411 32.4263C44.1168 33.0727 44.4693 34.0376 44.4693 35.3192V40.6898C44.4693 40.9003 44.2978 41.0707 44.0859 41.0707H43.2067C42.9949 41.0707 42.8233 40.9003 42.8233 40.6898V39.8124C42.5337 40.2557 42.1204 40.5948 41.5842 40.8286C41.0471 41.0624 40.4116 41.1788 39.6758 41.1788C38.6026 41.1788 37.7431 40.9208 37.0982 40.4057C36.4533 39.8906 36.1309 39.2135 36.1309 38.3743C36.1309 37.5351 36.4383 36.8617 37.0532 36.3522C37.6681 35.8436 38.6448 35.5884 39.9833 35.5884H42.7324V35.2466C42.7324 34.5042 42.5159 33.9342 42.081 33.5393C41.647 33.1434 41.0077 32.946 40.1642 32.946C39.5971 32.946 39.0431 33.0391 38.5004 33.2245C38.1049 33.3605 37.7534 33.5291 37.4478 33.7312C37.2669 33.8513 37.0204 33.7805 36.9145 33.5915L36.5658 32.9683C36.472 32.8007 36.5133 32.5846 36.6717 32.4756C37.1066 32.1766 37.6081 31.941 38.1742 31.7687C38.8613 31.5591 39.5915 31.4539 40.3629 31.4539C41.6892 31.4539 42.7052 31.7771 43.4101 32.4244L43.411 32.4263ZM41.6836 39.4082C42.1419 39.1297 42.4803 38.7394 42.6987 38.2392C42.7212 38.188 42.7324 38.1303 42.7324 38.0744V37.21C42.7324 36.9995 42.5609 36.8291 42.3491 36.8291H40.0554C38.5838 36.8291 37.849 37.3209 37.849 38.3026C37.849 38.7822 38.0355 39.1595 38.4095 39.4342C38.7835 39.7099 39.3018 39.8478 39.9645 39.8478C40.6272 39.8478 41.1999 39.7016 41.6826 39.4072L41.6836 39.4082Z" fill="white"/>
<path d="M54.7967 40.0118V40.7104C54.7967 40.9097 54.6345 41.0708 54.4339 41.0708H47.1303C46.9297 41.0708 46.7676 40.9097 46.7676 40.7104V40.0835C46.7676 40.0015 46.7957 39.9214 46.8482 39.8572L51.9538 33.5524C52.145 33.3158 51.9763 32.9656 51.6707 32.9656H47.24C47.0394 32.9656 46.8772 32.8045 46.8772 32.6052V31.9066C46.8772 31.7073 47.0394 31.5461 47.24 31.5461H54.2905C54.4911 31.5461 54.6533 31.7073 54.6533 31.9066V32.5502C54.6533 32.6331 54.6252 32.7123 54.5727 32.7765L49.4689 39.0636C49.2777 39.2993 49.4464 39.6513 49.752 39.6513H54.4349C54.6355 39.6513 54.7976 39.8125 54.7976 40.0118H54.7967Z" fill="white"/>
<path d="M63.6503 32.4263C64.3561 33.0727 64.7085 34.0376 64.7085 35.3192V40.6972C64.7085 40.9031 64.5398 41.0707 64.3327 41.0707H63.4385C63.2313 41.0707 63.0626 40.9031 63.0626 40.6972V39.8124C62.773 40.2557 62.3596 40.5948 61.8235 40.8286C61.2864 41.0624 60.6509 41.1788 59.9151 41.1788C58.8418 41.1788 57.9823 40.9208 57.3374 40.4057C56.6926 39.8906 56.3701 39.2135 56.3701 38.3743C56.3701 37.5351 56.6776 36.8617 57.2924 36.3522C57.9073 35.8436 58.884 35.5884 60.2225 35.5884H62.9717V35.2466C62.9717 34.5042 62.7552 33.9342 62.3202 33.5393C61.8863 33.1434 61.247 32.946 60.4034 32.946C59.8363 32.946 59.2824 33.0391 58.7397 33.2245C58.3413 33.3614 57.9879 33.5318 57.6805 33.7358C57.5033 33.8541 57.2606 33.7843 57.1575 33.5989L56.8022 32.9628C56.7104 32.7988 56.7507 32.5865 56.9063 32.4793C57.3431 32.1785 57.8455 31.9419 58.4144 31.7687C59.1015 31.5591 59.8316 31.4539 60.6031 31.4539C61.9294 31.4539 62.9454 31.7771 63.6503 32.4244V32.4263ZM61.9228 39.4082C62.3812 39.1287 62.7205 38.7385 62.9389 38.2374C62.9604 38.1871 62.9717 38.1303 62.9717 38.0753V37.2026C62.9717 36.9967 62.803 36.8291 62.5958 36.8291H60.2947C58.8231 36.8291 58.0882 37.3209 58.0882 38.3026C58.0882 38.7822 58.2748 39.1595 58.6487 39.4342C59.0227 39.7099 59.5411 39.8478 60.2038 39.8478C60.8665 39.8478 61.4392 39.7016 61.9219 39.4072L61.9228 39.4082Z" fill="white"/>
<path d="M74.924 32.5074C75.6411 33.2087 76.0001 34.2352 76.0001 35.5894V40.7104C76.0001 40.9097 75.8379 41.0708 75.6373 41.0708H74.6269C74.4263 41.0708 74.2642 40.9097 74.2642 40.7104V35.7869C74.2642 34.8648 74.0411 34.169 73.5949 33.7024C73.1487 33.2348 72.5095 33.001 71.6781 33.001C70.7379 33.001 69.9956 33.2739 69.4538 33.8188C68.912 34.3637 68.6402 35.1461 68.6402 36.1641V40.7104C68.6402 40.9097 68.4781 41.0708 68.2775 41.0708H67.267C67.0665 41.0708 66.9043 40.9097 66.9043 40.7104V31.9066C66.9043 31.7073 67.0665 31.5462 67.267 31.5462H68.2044C68.405 31.5462 68.5671 31.7073 68.5671 31.9066V32.9833C68.9167 32.4925 69.3901 32.1153 69.9871 31.8517C70.5842 31.5881 71.2619 31.4558 72.0221 31.4558C73.2397 31.4558 74.2079 31.806 74.925 32.5074H74.924Z" fill="white"/>
<path d="M29.6337 45.496H26.0381C25.8319 45.496 25.666 45.3302 25.666 45.1263V44.3029C25.666 44.098 25.8329 43.9331 26.0381 43.9331H35.7647C35.9709 43.9331 36.1368 44.0989 36.1368 44.3029V45.1263C36.1368 45.3312 35.97 45.496 35.7647 45.496H32.1692C31.9629 45.496 31.797 45.6618 31.797 45.8658V56.1421C31.797 56.347 31.6302 56.5119 31.4249 56.5119H30.3798C30.1736 56.5119 30.0077 56.3461 30.0077 56.1421V45.8658C30.0077 45.6609 29.8409 45.496 29.6356 45.496H29.6337Z" fill="white"/>
<path d="M38.3264 47.3299C38.827 47.0859 39.4193 46.9452 40.1026 46.908C40.3079 46.8968 40.4785 47.0673 40.4785 47.2712V48.5696C40.382 48.5575 40.2489 48.5519 40.0802 48.5519C39.14 48.5519 38.4005 48.8304 37.8643 49.3874C37.3272 49.9444 37.0592 50.7389 37.0592 51.7691V56.1514C37.0592 56.3516 36.8961 56.5137 36.6945 56.5137H35.6879C35.4863 56.5137 35.3232 56.3516 35.3232 56.1514V47.3504C35.3232 47.1502 35.4863 46.9881 35.6879 46.9881H36.6224C36.8239 46.9881 36.987 47.1502 36.987 47.3504V47.5497C36.987 47.859 37.3563 48.0322 37.5859 47.8245C37.8006 47.6298 38.0471 47.465 38.3255 47.3299H38.3264Z" fill="white"/>
<path d="M43.3268 44.8318C43.1037 44.6167 42.9922 44.3521 42.9922 44.0411C42.9922 43.73 43.1037 43.4626 43.3268 43.241C43.5499 43.0193 43.8302 42.9084 44.1676 42.9084C44.505 42.9084 44.7853 43.0128 45.0084 43.2223C45.2314 43.4328 45.343 43.6927 45.343 44.0038C45.343 44.3149 45.2314 44.5999 45.0084 44.8216C44.7853 45.0433 44.505 45.1541 44.1676 45.1541C43.8302 45.1541 43.549 45.0461 43.3268 44.8309V44.8318ZM43.6502 46.9881H44.685C44.879 46.9881 45.0355 47.1445 45.0355 47.3364V56.1644C45.0355 56.3572 44.8781 56.5127 44.685 56.5127H43.6502C43.4562 56.5127 43.2996 56.3562 43.2996 56.1644V47.3364C43.2996 47.1436 43.4571 46.9881 43.6502 46.9881Z" fill="white"/>
<path d="M55.6164 47.5088C56.3522 47.9167 56.9277 48.4858 57.3439 49.216C57.76 49.9472 57.9681 50.792 57.9681 51.7504C57.9681 52.7089 57.76 53.5574 57.3439 54.2941C56.9277 55.0309 56.3522 55.6037 55.6164 56.0107C54.8806 56.4187 54.0492 56.6227 53.1203 56.6227C52.4332 56.6227 51.8033 56.4904 51.2306 56.2268C50.9101 56.0797 50.6176 55.8943 50.3524 55.6726C50.1237 55.4817 49.775 55.6512 49.775 55.9483V59.6461C49.775 59.8416 49.6147 60.0009 49.4179 60.0009H48.3962C48.1993 60.0009 48.0391 59.8416 48.0391 59.6461V47.3439C48.0391 47.1483 48.1993 46.989 48.3962 46.989H49.3457C49.5425 46.989 49.7028 47.1483 49.7028 47.3439V47.5954C49.7028 47.8953 50.0562 48.063 50.284 47.8664C50.5473 47.6392 50.8417 47.4519 51.1678 47.3029C51.7584 47.0337 52.4098 46.8987 53.1212 46.8987C54.0492 46.8987 54.8815 47.1027 55.6173 47.5097L55.6164 47.5088ZM54.6313 54.689C55.1196 54.4078 55.5048 54.0119 55.7888 53.5024C56.0719 52.9939 56.2135 52.4089 56.2135 51.7504C56.2135 51.0919 56.0719 50.5079 55.7888 49.9984C55.5058 49.489 55.1196 49.0968 54.6313 48.8211C54.1429 48.5454 53.5908 48.4085 52.9759 48.4085C52.3611 48.4085 51.8277 48.5492 51.3394 48.8304C50.851 49.1117 50.4649 49.5039 50.1818 50.0078C49.8987 50.5107 49.7572 51.0919 49.7572 51.7504C49.7572 52.4089 49.8959 52.9939 50.1733 53.5024C50.4508 54.0119 50.836 54.4078 51.3309 54.689C51.8249 54.9713 52.3742 55.111 52.9769 55.111C53.5796 55.111 54.1438 54.9703 54.6322 54.689H54.6313Z" fill="white"/>
</g>
<defs>
<clipPath id="clip0_1235_7023">
<rect width="76" height="60" fill="white"/>
</clipPath>
</defs>
</svg>
