<svg width="72" height="56" viewBox="0 0 72 56" fill="none" xmlns="http://www.w3.org/2000/svg">
<g clip-path="url(#clip0_1142_6272)">
<path d="M23.1614 51.5092H21.6616L22.8782 44.0617C22.9537 43.6018 22.8418 43.142 22.5629 42.7647C22.2841 42.3883 21.8721 42.1405 21.405 42.0684L20.0917 41.8623L20.9415 36.6586C21.0844 35.7884 20.5383 34.9686 19.7001 34.7156L20.2701 31.2279C20.3305 30.861 20.2408 30.4925 20.018 30.1908C19.8421 29.9526 19.5979 29.7822 19.32 29.6909L20.3385 23.4562C20.5081 23.1406 20.4442 22.7424 20.1574 22.4982C19.7214 22.1261 19.5917 21.8636 19.5811 21.8001C19.5811 21.7992 19.5811 21.7984 19.5811 21.7975L20.2178 17.9012C20.3803 17.8108 20.5259 17.7082 20.6422 17.5848C20.9432 17.2657 20.9264 16.7659 20.6005 16.4712C20.4318 16.3182 20.216 16.253 20.0037 16.266L19.9798 0.785105C19.9798 0.774673 19.9771 0.76598 19.9771 0.755548C19.9762 0.726861 19.9727 0.699042 19.9682 0.670355C19.9647 0.646883 19.9611 0.622542 19.9549 0.59994C19.9487 0.574729 19.9398 0.550388 19.9309 0.526047C19.9221 0.501706 19.9141 0.478234 19.9025 0.455632C19.8919 0.43303 19.8785 0.411297 19.8661 0.389564C19.8528 0.367831 19.8404 0.346967 19.8253 0.326972C19.8093 0.306109 19.7924 0.286114 19.7746 0.266989C19.7587 0.248733 19.7427 0.231347 19.7249 0.21483C19.7054 0.196574 19.6841 0.180926 19.6628 0.164409C19.6423 0.149631 19.6228 0.134852 19.6015 0.121812C19.5802 0.108773 19.5571 0.0974713 19.534 0.0861701C19.5091 0.0739996 19.4843 0.0626984 19.4576 0.0531359C19.4479 0.0496586 19.439 0.0435734 19.4283 0.0400961C19.4141 0.0357495 19.3999 0.0348801 19.3857 0.0314028C19.3573 0.0235789 19.3289 0.0174937 19.2996 0.0131471C19.2756 0.00966979 19.2525 0.00793114 19.2285 0.0061925C19.2108 0.00532317 19.1939 0.000976562 19.1761 0.000976562H19.1753C19.1619 0.000976562 19.1504 0.00445385 19.1371 0.00445385C19.1166 0.00532317 19.0962 0.00793114 19.0767 0.0105391C19.0421 0.0148857 19.0083 0.0201017 18.9763 0.0287949C18.9621 0.0322722 18.9479 0.0374881 18.9337 0.0418347C18.8982 0.0531359 18.8636 0.0653064 18.8307 0.0809542C18.8174 0.0870395 18.805 0.0948634 18.7925 0.101818C18.7615 0.119204 18.7304 0.136591 18.702 0.157455C18.6869 0.167886 18.6735 0.180057 18.6602 0.191358C18.6354 0.211353 18.6123 0.232216 18.5901 0.255688C18.575 0.271336 18.5625 0.287853 18.5492 0.30437C18.5306 0.326972 18.5128 0.350444 18.4968 0.375654C18.4853 0.39391 18.4755 0.413905 18.4649 0.433899C18.4507 0.460848 18.4382 0.487797 18.4276 0.516485C18.424 0.525178 18.4187 0.533002 18.416 0.541695L13.4602 15.2445C13.263 15.168 13.0357 15.1663 12.8279 15.2602C12.4248 15.4419 12.2489 15.9087 12.4345 16.3034C12.5038 16.4503 12.6121 16.5903 12.7382 16.7267L12.1069 20.5952C12.0998 20.6065 12.0909 20.6161 12.0847 20.6283C12.0545 20.6848 11.8484 20.8943 11.3148 21.1159C10.9516 21.2663 10.7624 21.648 10.8459 22.0122L9.8336 28.2087C9.53968 28.2114 9.25463 28.2983 9.01221 28.4695C8.70408 28.6877 8.50162 29.0103 8.44212 29.378L7.87292 32.8657C7.48664 32.8587 7.11014 32.9657 6.79223 33.1908C6.40507 33.4655 6.15022 33.8706 6.07474 34.3331L5.22493 39.5369L3.91071 39.3309C3.44185 39.2578 2.9721 39.3674 2.5876 39.6403C2.2031 39.9133 1.95003 40.3158 1.87543 40.7748L0.00976789 52.1716H0.0124319C0.00621593 52.2125 0 52.2533 0 52.2959C0 52.7297 0.359636 53.0818 0.802743 53.0818H23.1614C23.6054 53.0818 23.9642 52.7297 23.9642 52.2959C23.9642 51.8621 23.6045 51.5101 23.1614 51.5101V51.5092ZM18.3814 5.65592L18.3992 16.7519C17.9214 16.7841 17.3105 16.7702 16.5841 16.6563C15.9376 16.5555 15.3303 16.3912 14.8303 16.193L18.3814 5.65592ZM12.4177 22.3339C12.7657 22.1461 13.1138 21.8966 13.3554 21.5802C13.5063 21.4619 13.6164 21.2942 13.6493 21.0925L14.2123 17.6439C14.8303 17.8916 15.5505 18.0872 16.3292 18.2098C16.8532 18.2915 17.4206 18.3428 17.9729 18.3428C18.1585 18.3428 18.3414 18.335 18.5217 18.3228L17.9587 21.7688C17.9294 21.9453 17.9658 22.1165 18.0466 22.2635C18.17 22.6651 18.4427 23.0337 18.7321 23.3353L17.7394 29.411L11.4231 28.4217L12.4177 22.3347V22.3339ZM9.99699 29.8013L18.6558 31.1566L18.1185 34.4427L16.6898 34.2192C16.7049 34.1845 16.7235 34.1514 16.7297 34.1132C16.8114 33.6133 16.9384 32.8396 17.0192 32.3398C17.0405 32.2111 17.0077 32.0798 16.9304 31.9746C16.8523 31.8695 16.7342 31.7982 16.6036 31.7773C16.3781 31.7417 16.1108 31.6999 15.8844 31.6652C15.7529 31.6443 15.6189 31.6765 15.5114 31.7521C15.404 31.8277 15.3311 31.9434 15.3098 32.072C15.2281 32.5719 15.102 33.3456 15.0203 33.8446C15.0141 33.8828 15.0221 33.9202 15.0248 33.9584L12.5358 33.569C12.5429 33.5464 12.5571 33.5264 12.5606 33.5029C12.6423 33.0031 12.7684 32.2294 12.8501 31.7295C12.8714 31.6008 12.8386 31.4696 12.7613 31.3644C12.6832 31.2592 12.5651 31.1879 12.4345 31.167C12.2081 31.1323 11.9417 31.0905 11.7153 31.0549C11.5838 31.034 11.4497 31.0662 11.3423 31.1418C11.234 31.2183 11.162 31.334 11.1407 31.4617C11.059 31.9616 10.932 32.7353 10.8512 33.2352C10.8477 33.2586 10.8539 33.2812 10.8539 33.3047L9.45976 33.0865L9.99699 29.8005V29.8013ZM7.65802 34.5791C7.66779 34.5192 7.70331 34.4826 7.73084 34.4627C7.75926 34.4418 7.80454 34.4183 7.8667 34.4305L19.2028 36.2056C19.3022 36.2213 19.3706 36.3126 19.3546 36.4099L18.5039 41.6146L17.2794 41.4224L17.8104 38.1677C17.8442 37.9617 17.7927 37.7513 17.6674 37.5826C17.5422 37.414 17.354 37.3001 17.1435 37.2671L14.8481 36.9081C14.4094 36.8394 13.9983 37.1315 13.9281 37.56L13.3962 40.8139L11.9133 40.5818L12.4549 37.2688C12.4887 37.0628 12.4372 36.8524 12.3129 36.6829C12.1877 36.5143 11.9994 36.4012 11.789 36.3673L9.49261 36.0083C9.05306 35.9405 8.64281 36.2317 8.57265 36.6603L8.03187 39.9742L6.80733 39.782L7.65714 34.5783L7.65802 34.5791ZM16.0984 38.6971L15.6961 41.1625L14.9857 41.0512L15.388 38.5858L16.0975 38.6971H16.0984ZM10.7438 37.7974L10.3309 40.3219L9.62137 40.2106L10.0334 37.6861L10.7438 37.7974ZM14.262 47.2417L13.5649 51.5092H8.21746L9.04773 46.4254C9.15784 45.7534 9.54323 45.1388 10.1071 44.7398C10.6772 44.3347 11.3752 44.173 12.0731 44.2808C12.7693 44.3894 13.3802 44.7572 13.794 45.317C14.2016 45.8682 14.373 46.5697 14.2629 47.2417H14.262ZM20.0357 51.5092H15.1908L15.848 47.4894C16.0264 46.3932 15.7592 45.2935 15.0941 44.3947C14.4281 43.4949 13.4442 42.9029 12.3244 42.7282C11.2055 42.5543 10.0813 42.8151 9.16317 43.4662C8.2441 44.1173 7.63938 45.0806 7.46 46.1776L6.58888 51.5101H1.7449L3.45872 41.0208C3.4676 40.9643 3.50046 40.9304 3.5271 40.9122C3.55374 40.8939 3.59814 40.8739 3.65497 40.8826L21.1537 43.6227C21.1972 43.6297 21.2363 43.6531 21.2638 43.6896C21.2904 43.7253 21.3011 43.7687 21.294 43.8139L20.0366 51.5109L20.0357 51.5092Z" fill="#39919A"/>
<path d="M16.892 22.4929L14.4261 22.107C13.9874 22.0392 13.5763 22.3304 13.5061 22.759L12.7611 27.322C12.7273 27.5281 12.7789 27.7384 12.9032 27.908C13.0275 28.0775 13.2166 28.1896 13.4271 28.2235L15.893 28.6095C15.9357 28.6165 15.9792 28.6191 16.0209 28.6191C16.409 28.6191 16.7499 28.3435 16.813 27.9575L17.558 23.3944C17.5918 23.1884 17.5403 22.978 17.4159 22.8085C17.2907 22.6399 17.1025 22.5268 16.892 22.4929ZM15.354 26.9326L14.4749 26.7952L14.9669 23.7848L15.846 23.9221L15.354 26.9326Z" fill="#39919A"/>
<path d="M26.7212 33.3759L24.8875 35.1997C24.8244 35.2623 24.7889 35.3466 24.7889 35.4344V37.9981C24.7889 38.1832 24.6353 38.3336 24.4462 38.3336H23.417C23.2278 38.3336 23.0742 38.1832 23.0742 37.9981V26.9264C23.0742 26.7412 23.2278 26.5908 23.417 26.5908H24.4462C24.6353 26.5908 24.7889 26.7412 24.7889 26.9264V32.3249C24.7889 32.6257 25.1628 32.7743 25.3768 32.5587L31.1993 26.6934C31.2641 26.6282 31.3521 26.5917 31.4444 26.5917H32.4558C32.7569 26.5917 32.9114 26.9438 32.7045 27.1576L28.3382 31.6607C28.2192 31.7833 28.2121 31.9745 28.3222 32.1049L33.1147 37.786C33.2994 38.0042 33.1405 38.3345 32.851 38.3345H31.7303C31.6309 38.3345 31.5359 38.2919 31.4711 38.218L27.2238 33.3933C27.0933 33.2446 26.8606 33.2377 26.7203 33.3767L26.7212 33.3759Z" fill="#28303F"/>
<path d="M41.1265 30.2645C41.7952 30.8678 42.129 31.7684 42.129 32.9646V37.9771C42.129 38.1736 41.9665 38.3327 41.7659 38.3327H40.9329C40.7322 38.3327 40.5697 38.1736 40.5697 37.9771V37.1582C40.2954 37.572 39.9037 37.8885 39.3958 38.1067C38.887 38.3249 38.2849 38.4335 37.5879 38.4335C36.5711 38.4335 35.7568 38.1927 35.1459 37.712C34.535 37.2313 34.2295 36.5993 34.2295 35.816C34.2295 35.0327 34.5208 34.4042 35.1033 33.9287C35.6858 33.454 36.6111 33.2159 37.8791 33.2159H40.4836V32.8968C40.4836 32.204 40.2785 31.6719 39.8665 31.3033C39.4553 30.9339 38.8497 30.7496 38.0505 30.7496C37.5133 30.7496 36.9885 30.8365 36.4743 31.0095C36.0996 31.1364 35.7666 31.2938 35.4771 31.4824C35.3057 31.5946 35.0722 31.5285 34.9719 31.352L34.6415 30.7704C34.5527 30.614 34.5918 30.4123 34.7419 30.3106C35.1539 30.0315 35.629 29.8116 36.1653 29.6508C36.8162 29.4552 37.508 29.3569 38.2388 29.3569C39.4953 29.3569 40.4579 29.6586 41.1256 30.2628L41.1265 30.2645ZM39.4899 36.7809C39.9242 36.521 40.2447 36.1568 40.4516 35.6899C40.4729 35.6421 40.4836 35.5882 40.4836 35.5361V34.7293C40.4836 34.5329 40.3211 34.3738 40.1204 34.3738H37.9475C36.5534 34.3738 35.8572 34.8328 35.8572 35.7491C35.8572 36.1968 36.0339 36.5488 36.3882 36.8053C36.7425 37.0626 37.2336 37.1913 37.8614 37.1913C38.4892 37.1913 39.0317 37.0548 39.4891 36.7801L39.4899 36.7809Z" fill="#28303F"/>
<path d="M51.9132 37.3444V37.9964C51.9132 38.1824 51.7595 38.3328 51.5695 38.3328H44.6503C44.4603 38.3328 44.3066 38.1824 44.3066 37.9964V37.4113C44.3066 37.3348 44.3333 37.2601 44.383 37.2001L49.2199 31.3156C49.401 31.0948 49.2412 30.768 48.9517 30.768H44.7542C44.5642 30.768 44.4105 30.6176 44.4105 30.4315V29.7795C44.4105 29.5935 44.5642 29.4431 44.7542 29.4431H51.4336C51.6237 29.4431 51.7773 29.5935 51.7773 29.7795V30.3802C51.7773 30.4576 51.7507 30.5315 51.7009 30.5915L46.8658 36.4594C46.6847 36.6794 46.8445 37.008 47.134 37.008H51.5704C51.7604 37.008 51.914 37.1583 51.914 37.3444H51.9132Z" fill="#28303F"/>
<path d="M60.2994 30.2645C60.968 30.8678 61.3019 31.7684 61.3019 32.9646V37.9841C61.3019 38.1762 61.1421 38.3327 60.9458 38.3327H60.0987C59.9024 38.3327 59.7426 38.1762 59.7426 37.9841V37.1582C59.4682 37.572 59.0766 37.8885 58.5687 38.1067C58.0599 38.3249 57.4578 38.4335 56.7607 38.4335C55.744 38.4335 54.9297 38.1927 54.3188 37.712C53.7078 37.2313 53.4023 36.5993 53.4023 35.816C53.4023 35.0327 53.6936 34.4042 54.2761 33.9287C54.8586 33.454 55.7839 33.2159 57.052 33.2159H59.6565V32.8968C59.6565 32.204 59.4513 31.6719 59.0393 31.3033C58.6282 30.9339 58.0226 30.7496 57.2234 30.7496C56.6861 30.7496 56.1613 30.8365 55.6472 31.0095C55.2698 31.1373 54.935 31.2964 54.6438 31.4868C54.4759 31.5972 54.2459 31.532 54.1483 31.359L53.8117 30.7652C53.7247 30.6122 53.7629 30.414 53.9103 30.3141C54.3241 30.0333 54.8 29.8125 55.339 29.6508C55.9899 29.4552 56.6817 29.3569 57.4125 29.3569C58.669 29.3569 59.6316 29.6586 60.2994 30.2628V30.2645ZM58.6628 36.7809C59.097 36.5201 59.4185 36.1559 59.6254 35.6882C59.6458 35.6413 59.6565 35.5882 59.6565 35.5369V34.7224C59.6565 34.5303 59.4966 34.3738 59.3004 34.3738H57.1204C55.7262 34.3738 55.03 34.8328 55.03 35.7491C55.03 36.1968 55.2067 36.5488 55.561 36.8053C55.9154 37.0626 56.4064 37.1913 57.0342 37.1913C57.662 37.1913 58.2046 37.0548 58.6619 36.7801L58.6628 36.7809Z" fill="#28303F"/>
<path d="M70.9805 30.3401C71.6598 30.9947 71.9999 31.9527 71.9999 33.2167V37.9962C71.9999 38.1823 71.8462 38.3327 71.6562 38.3327H70.699C70.5089 38.3327 70.3553 38.1823 70.3553 37.9962V33.401C70.3553 32.5404 70.144 31.891 69.7213 31.4554C69.2986 31.019 68.693 30.8008 67.9053 30.8008C67.0147 30.8008 66.3114 31.0556 65.7981 31.5641C65.2849 32.0727 65.0274 32.8029 65.0274 33.7531V37.9962C65.0274 38.1823 64.8737 38.3327 64.6837 38.3327H63.7265C63.5364 38.3327 63.3828 38.1823 63.3828 37.9962V29.7794C63.3828 29.5934 63.5364 29.443 63.7265 29.443H64.6145C64.8045 29.443 64.9581 29.5934 64.9581 29.7794V30.7843C65.2893 30.3262 65.7378 29.9741 66.3034 29.7281C66.8691 29.4821 67.5111 29.3586 68.2312 29.3586C69.3847 29.3586 70.302 29.6855 70.9813 30.3401H70.9805Z" fill="#28303F"/>
<path d="M28.0733 42.4629H24.667C24.4716 42.4629 24.3145 42.3081 24.3145 42.1178V41.3493C24.3145 41.158 24.4725 41.0042 24.667 41.0042H33.8817C34.077 41.0042 34.2342 41.1589 34.2342 41.3493V42.1178C34.2342 42.309 34.0761 42.4629 33.8817 42.4629H30.4753C30.28 42.4629 30.1228 42.6176 30.1228 42.808V52.3992C30.1228 52.5905 29.9647 52.7443 29.7703 52.7443H28.7802C28.5848 52.7443 28.4276 52.5896 28.4276 52.3992V42.808C28.4276 42.6167 28.2696 42.4629 28.0751 42.4629H28.0733Z" fill="#28303F"/>
<path d="M36.309 44.1746C36.7832 43.9468 37.3444 43.8155 37.9917 43.7808C38.1862 43.7703 38.3478 43.9294 38.3478 44.1198V45.3316C38.2563 45.3203 38.1303 45.3151 37.9704 45.3151C37.0798 45.3151 36.3791 45.575 35.8712 46.0949C35.3624 46.6147 35.1084 47.3563 35.1084 48.3178V52.4079C35.1084 52.5948 34.9539 52.7461 34.763 52.7461H33.8093C33.6184 52.7461 33.4639 52.5948 33.4639 52.4079V44.1937C33.4639 44.0068 33.6184 43.8555 33.8093 43.8555H34.6946C34.8855 43.8555 35.04 44.0068 35.04 44.1937V44.3797C35.04 44.6683 35.3899 44.83 35.6075 44.6362C35.8108 44.4545 36.0444 44.3006 36.3081 44.1746H36.309Z" fill="#28303F"/>
<path d="M41.0465 41.843C40.8352 41.6422 40.7295 41.3953 40.7295 41.1049C40.7295 40.8146 40.8352 40.5651 41.0465 40.3582C41.2578 40.1513 41.5234 40.0479 41.843 40.0479C42.1627 40.0479 42.4282 40.1452 42.6396 40.3408C42.8509 40.5373 42.9566 40.7798 42.9566 41.0702C42.9566 41.3605 42.8509 41.6265 42.6396 41.8334C42.4282 42.0403 42.1627 42.1438 41.843 42.1438C41.5234 42.1438 41.257 42.0429 41.0465 41.8421V41.843ZM41.3529 43.8555H42.3332C42.517 43.8555 42.6653 44.0015 42.6653 44.1806V52.42C42.6653 52.6 42.5161 52.7452 42.3332 52.7452H41.3529C41.169 52.7452 41.0208 52.5991 41.0208 52.42V44.1806C41.0208 44.0007 41.1699 43.8555 41.3529 43.8555Z" fill="#28303F"/>
<path d="M52.6892 44.3416C53.3863 44.7224 53.9316 45.2535 54.3258 45.9351C54.7201 46.6175 54.9172 47.406 54.9172 48.3005C54.9172 49.195 54.7201 49.987 54.3258 50.6746C53.9316 51.3623 53.3863 51.8969 52.6892 52.2768C51.9922 52.6576 51.2045 52.8479 50.3245 52.8479C49.6736 52.8479 49.0769 52.7245 48.5343 52.4785C48.2307 52.3411 47.9536 52.1681 47.7023 51.9612C47.4856 51.783 47.1553 51.9412 47.1553 52.2186V55.6698C47.1553 55.8523 47.0034 56.001 46.817 56.001H45.8491C45.6626 56.001 45.5107 55.8523 45.5107 55.6698V44.1878C45.5107 44.0052 45.6626 43.8565 45.8491 43.8565H46.7486C46.9351 43.8565 47.0869 44.0052 47.0869 44.1878V44.4225C47.0869 44.7024 47.4217 44.8589 47.6375 44.6754C47.887 44.4633 48.1658 44.2886 48.4749 44.1495C49.0343 43.8983 49.6514 43.7722 50.3254 43.7722C51.2045 43.7722 51.9931 43.9626 52.6901 44.3425L52.6892 44.3416ZM51.756 51.0432C52.2186 50.7807 52.5836 50.4112 52.8526 49.9357C53.1208 49.4611 53.2549 48.9151 53.2549 48.3005C53.2549 47.6859 53.1208 47.1408 52.8526 46.6653C52.5845 46.1898 52.2186 45.8238 51.756 45.5665C51.2933 45.3092 50.7703 45.1814 50.1878 45.1814C49.6053 45.1814 49.1 45.3127 48.6374 45.5752C48.1747 45.8377 47.8089 46.2037 47.5407 46.674C47.2725 47.1435 47.1384 47.6859 47.1384 48.3005C47.1384 48.9151 47.2699 49.4611 47.5327 49.9357C47.7955 50.4112 48.1605 50.7807 48.6294 51.0432C49.0973 51.3066 49.6177 51.437 50.1887 51.437C50.7596 51.437 51.2942 51.3058 51.7569 51.0432H51.756Z" fill="#28303F"/>
</g>
<defs>
<clipPath id="clip0_1142_6272">
<rect width="72" height="56" fill="white"/>
</clipPath>
</defs>
</svg>
