<svg width="1922" height="779" viewBox="0 0 1922 779" fill="none" preserveAspectRatio="none" xmlns="http://www.w3.org/2000/svg">
<path d="M0 26.6389L494.498 59.1558C623.922 67.6664 753.867 63.5668 882.497 46.9151L1077.84 21.6272C1189.02 7.23455 1301.21 2.21529 1413.23 6.62246L1922 26.6389V728.811L1438.27 704.353C1309.66 697.85 1180.72 703.784 1053.25 722.071L873.89 747.803C729.357 768.539 582.988 773.384 437.401 762.253L0 728.811V26.6389Z" fill="#E2F1F2"/>
<path opacity="0.4" d="M1922 26.6389L1427.5 59.1558C1298.08 67.6664 1168.13 63.5668 1039.5 46.9151L844.162 21.6272C732.983 7.23455 620.791 2.21529 508.771 6.62246L0.00012207 26.6389V728.811L483.734 704.353C612.343 697.85 741.28 703.784 868.748 722.071L1048.11 747.803C1192.64 768.539 1339.01 773.384 1484.6 762.253L1922 728.811V26.6389Z" fill="#E2F1F2"/>
</svg>
