<svg width="816" height="602" viewBox="0 0 816 602" preserveAspectRatio="none" fill="none" xmlns="http://www.w3.org/2000/svg">
<path d="M0 20.5861L163.271 40.1284C248.798 50.3655 335.46 45.4948 419.302 25.7387C491.703 8.67833 566.274 2.70275 640.468 8.01595L816 20.5861V563.215L648.84 547.831C569.242 540.505 488.977 547.088 411.637 567.284C323.874 590.202 232.449 595.564 142.609 583.061L0 563.215V20.5861Z" fill="#E2F1F2"/>
<path opacity="0.4" d="M816 20.5861L652.729 40.1284C567.202 50.3655 480.54 45.4948 396.698 25.7387C324.297 8.67833 249.726 2.70275 175.532 8.01595L0 20.5861V563.215L167.16 547.831C246.758 540.505 327.023 547.088 404.363 567.284C492.126 590.202 583.551 595.564 673.391 583.061L816 563.215V20.5861Z" fill="#E2F1F2"/>
</svg>
